<?xml version="1.0" standalone="no"?>
<!DOCTYPE svg PUBLIC "-//W3C//DTD SVG 20010904//EN"
 "http://www.w3.org/TR/2001/REC-SVG-20010904/DTD/svg10.dtd">
<svg version="1.0" xmlns="http://www.w3.org/2000/svg"
 width="1280.000000pt" height="720.000000pt" viewBox="0 0 1280.000000 720.000000"
 preserveAspectRatio="xMidYMid meet">
<metadata>
Created by potrace 1.16, written by Peter Selinger 2001-2019
</metadata>
<g transform="translate(0.000000,720.000000) scale(0.100000,-0.100000)"
fill="#000000" stroke="none">
<path d="M4437 6503 c-4 -3 -7 -28 -7 -55 l0 -48 1971 0 1970 0 -3 53 -3 52
-1961 3 c-1078 1 -1964 -1 -1967 -5z"/>
<path d="M8370 6047 c0 -73 1 -78 19 -72 15 4 18 2 15 -12 -4 -14 0 -19 14
-19 15 0 19 6 16 22 -3 15 2 23 16 27 29 7 44 54 31 97 -10 34 -12 35 -61 35
l-50 0 0 -78z"/>
<path d="M9680 6116 c20 -18 369 -222 401 -235 16 -6 31 -6 40 0 11 7 9 13
-11 28 -25 20 -104 61 -202 106 -32 15 -60 31 -64 36 -3 6 14 1 37 -11 75 -38
28 -3 -60 45 -55 29 -97 45 -120 45 -30 0 -33 -2 -21 -14z"/>
<path d="M9972 6109 c-11 -18 -16 -19 -29 -7 -15 11 -16 11 -10 -5 4 -10 7
-20 7 -23 0 -2 8 -1 18 3 14 5 13 3 -3 -10 -19 -15 -18 -17 35 -41 72 -32 110
-42 110 -26 0 6 5 8 10 5 6 -4 8 -10 5 -15 -6 -10 79 -25 94 -16 5 4 13 1 18
-6 9 -14 53 -19 53 -6 0 4 14 8 32 8 17 0 40 7 50 17 11 9 18 11 18 5 0 -17
25 -15 63 4 45 23 77 54 77 76 0 24 -12 23 -28 -3 -13 -20 -14 -20 -33 -3 -11
10 -19 12 -19 6 0 -7 -17 -12 -42 -11 -24 0 -38 3 -31 5 7 3 9 12 6 20 -4 10
2 14 21 14 14 0 26 -5 26 -11 0 -8 5 -8 15 1 11 9 12 16 4 26 -8 10 -42 12
-147 9 -76 -2 -141 -5 -147 -5 -5 -1 -26 1 -45 4 -19 3 -40 0 -49 -7 -12 -9
-13 -9 -7 1 4 7 2 12 -8 12 -8 0 -18 -5 -21 -10 -5 -7 -11 -8 -19 -1 -8 7 -16
4 -24 -10z"/>
<path d="M9327 6079 c-9 -5 -21 -8 -26 -5 -21 13 -41 -7 -41 -41 0 -31 2 -33
15 -19 18 17 20 40 3 30 -7 -4 -8 -3 -4 4 4 7 12 12 18 12 7 0 8 -21 4 -62 -9
-94 -7 -115 14 -156 11 -20 20 -47 20 -59 0 -29 27 -42 97 -47 60 -4 143 -13
203 -22 l35 -6 -35 -19 c-58 -31 -5 -22 64 10 33 16 75 35 91 41 17 7 25 14
17 17 -9 3 -10 9 -3 17 23 28 11 32 -279 91 -96 20 -186 38 -199 41 -19 4 -22
9 -17 32 4 15 9 44 13 65 3 20 10 37 15 37 6 0 8 7 5 15 -10 25 10 26 40 1 22
-18 49 -26 118 -35 178 -24 314 -37 310 -31 -5 9 -123 28 -213 35 -40 3 -94
10 -120 15 -26 4 -49 7 -51 5 -2 -2 -15 7 -29 21 -29 26 -38 28 -65 13z"/>
<path d="M9985 5801 c-93 -38 -201 -82 -240 -99 l-70 -31 91 -1 c78 0 98 4
135 24 24 13 59 27 77 31 17 4 32 11 32 15 0 5 25 17 56 27 54 17 55 17 33 34
-21 16 -21 16 25 38 43 21 56 32 39 30 -5 0 -84 -31 -178 -68z"/>
<path d="M8370 5215 c-2 -214 -5 -373 -7 -352 -4 32 -6 35 -19 23 -8 -8 -14
-17 -14 -21 0 -3 -12 -19 -27 -35 -31 -33 -59 -38 -118 -22 -22 7 -43 12 -47
12 -12 0 -4 -143 10 -148 6 -2 12 -10 12 -17 0 -7 8 -27 18 -44 13 -25 24 -31
50 -31 21 0 32 5 32 14 0 9 7 12 18 9 26 -6 80 41 85 75 2 15 5 -753 6 -1707
l1 -1733 28 8 c15 4 551 10 1192 13 665 4 1171 10 1179 15 12 8 11 11 -4 23
-16 11 -7 13 68 13 l87 0 0 558 0 557 -832 1 c-458 0 -1012 1 -1230 2 l-397 2
0 120 c0 97 3 120 15 120 18 0 18 17 0 27 -9 5 -15 31 -18 76 l-3 67 28 0 c17
0 27 5 27 15 0 13 -26 21 -53 16 -5 -1 -6 33 -3 76 3 43 6 83 5 88 0 6 -2 59
-5 119 -5 98 -4 111 12 123 16 12 16 13 1 13 -9 0 -17 6 -18 13 0 6 -2 19 -4
27 -2 11 6 17 28 18 37 3 39 5 32 24 -4 9 -15 13 -34 10 -16 -2 -32 1 -36 9
-5 7 -4 10 2 6 7 -5 9 19 6 72 -4 53 -2 81 6 86 7 4 42 10 79 15 37 4 57 8 44
9 -13 0 -20 6 -17 11 3 6 2 10 -3 10 -5 0 -9 24 -9 53 0 29 -3 63 -7 74 -4 12
-2 24 4 28 15 9 12 25 -5 25 -26 0 -16 21 15 33 26 10 60 63 65 102 8 59 24
72 74 65 8 -1 12 4 8 13 -9 23 4 29 20 9 13 -16 14 -15 10 6 -3 12 -2 22 2 22
5 0 13 -10 19 -22 7 -15 11 -18 11 -8 1 17 -54 73 -81 83 -10 3 -18 11 -18 17
0 13 13 13 27 -1 6 -6 17 -9 25 -6 8 3 3 9 -14 17 -15 7 -25 16 -23 20 3 5 -2
11 -11 14 -8 3 -12 10 -9 16 3 5 2 10 -4 10 -5 0 -11 -6 -14 -12 -9 -26 -16
-1 -8 28 5 16 10 22 11 14 0 -8 7 0 15 18 8 18 11 40 8 48 -3 9 0 20 8 25 11
7 10 11 -6 23 -13 10 -15 15 -6 16 10 0 11 3 2 14 -9 11 -9 15 1 19 9 3 7 9
-7 21 -11 8 -15 16 -7 16 6 0 12 9 12 20 0 11 -3 19 -7 19 -19 -3 -33 2 -33
11 0 5 8 7 18 3 11 -4 14 -3 7 4 -6 7 -27 8 -55 3 -37 -6 -40 -8 -15 -10 l30
-2 -32 -11 c-18 -7 -33 -16 -34 -22 0 -5 -6 -16 -12 -24 -10 -11 -8 -13 13 -6
24 7 24 7 5 -9 -28 -22 -67 -21 -63 2 2 13 -3 16 -21 14 -21 -2 -22 0 -10 15
12 15 12 16 -5 10 -15 -6 -16 -5 -8 6 6 7 9 26 7 42 -2 17 -4 78 -5 137 -2 95
-4 107 -21 111 -17 5 -19 16 -21 149 0 78 -2 157 -3 173 -2 17 2 36 7 43 7 8
7 12 -1 12 -15 0 -14 73 1 88 7 7 21 12 33 13 11 1 4 5 -17 11 -44 12 -49 23
-13 32 37 9 30 33 -8 27 -15 -2 -20 31 -6 40 11 6 11 11 1 21 -17 17 -16 113
2 127 11 9 15 9 19 -1 3 -9 11 -7 27 9 15 13 18 21 9 21 -66 -4 -68 -2 -72 65
-2 34 -5 -113 -7 -328z m1690 -3129 l0 -66 -90 0 c-91 0 -108 8 -78 38 9 9 9
12 0 12 -7 0 -12 13 -12 31 0 18 4 28 10 24 6 -4 8 -10 5 -15 -3 -5 -1 -11 4
-14 5 -3 11 1 15 9 3 8 1 17 -4 20 -25 15 -4 22 70 24 l80 2 0 -65z m188 50
c14 -8 16 -46 3 -46 -5 0 -11 6 -14 13 -2 6 -4 0 -3 -14 1 -17 6 -25 14 -22
17 7 15 -22 -3 -37 -14 -12 -19 -7 -16 15 1 6 -5 2 -13 -8 -25 -32 -150 -8
-130 25 3 5 12 4 20 -3 22 -18 17 2 -7 27 -14 14 -19 29 -15 42 6 17 15 20 79
18 40 -1 78 -5 85 -10z m220 -209 l-3 -60 -55 -3 c-75 -3 -120 5 -120 23 0 7
7 13 16 11 10 -2 18 3 20 10 1 7 0 8 -3 2 -3 -6 -10 -4 -19 4 -16 17 -20 71
-3 61 6 -4 8 -13 5 -21 -3 -8 -1 -14 3 -14 15 0 21 29 8 37 -12 8 117 21 141
14 9 -2 12 -21 10 -64z m-418 48 c16 -19 3 -40 -15 -25 -11 9 -12 7 -8 -9 3
-12 0 -28 -7 -36 -7 -8 -9 -15 -5 -15 4 0 14 8 21 17 17 24 29 10 13 -16 -11
-17 -22 -20 -79 -18 -62 1 -90 13 -90 36 0 15 17 14 23 -1 2 -7 8 -10 13 -5 4
4 -2 14 -14 23 -21 14 -33 52 -13 39 5 -3 12 -1 15 4 4 5 -2 12 -11 14 -10 3
19 5 63 6 60 1 85 -3 94 -14z"/>
<path d="M7420 5455 c-23 -24 -23 -25 -5 -45 16 -18 14 -25 -7 -21 -5 0 -8 -3
-8 -9 0 -5 -7 -7 -15 -4 -19 8 -48 -15 -41 -32 3 -8 0 -11 -10 -7 -9 3 -14 0
-12 -7 2 -7 -9 -14 -26 -15 l-28 -4 23 27 c17 19 18 22 4 11 -11 -9 -27 -20
-35 -24 -13 -8 -13 -7 -1 8 12 15 12 17 -3 11 -9 -3 -16 -10 -16 -15 0 -5 -7
-9 -15 -9 -8 0 -15 -6 -15 -14 0 -7 -15 -17 -32 -21 -32 -6 -32 -7 -10 -17 24
-12 31 -34 7 -24 -8 3 -15 1 -15 -4 0 -6 5 -10 12 -10 6 0 8 -3 5 -6 -9 -9
-67 16 -67 28 0 6 9 8 20 5 11 -3 18 -1 14 4 -8 13 -30 11 -43 -5 -9 -11 -5
-16 19 -26 16 -7 30 -16 30 -21 0 -11 -38 -21 -51 -13 -8 5 -9 3 -4 -5 4 -7
16 -10 27 -8 20 6 58 -11 58 -24 0 -4 -16 -7 -36 -7 -19 0 -37 -2 -39 -4 -6
-6 19 -78 27 -78 5 0 8 -6 8 -12 -1 -7 -10 -2 -20 11 -11 13 -20 22 -21 20 -6
-28 -2 -63 9 -72 12 -9 11 -12 -5 -18 -16 -7 -16 -8 4 -8 15 -1 24 8 32 31
l12 33 12 -25 c8 -15 10 -27 4 -31 -15 -11 0 -39 21 -39 10 0 23 5 30 12 9 9
15 9 24 0 7 -7 43 -12 90 -12 84 0 80 -2 147 75 20 25 35 35 38 28 3 -7 10
-13 16 -13 8 0 11 17 9 50 -2 27 -8 50 -13 50 -5 0 -9 6 -9 14 0 9 8 12 26 8
25 -5 26 -3 20 23 -11 43 -46 76 -68 64 -10 -5 -18 -7 -18 -4 0 3 -9 1 -19 -5
-18 -9 -19 -8 -10 22 14 52 11 93 -11 121 -26 33 -25 39 4 31 19 -4 27 0 36
18 10 19 10 21 -1 11 -20 -19 -31 -16 -24 7 9 27 -7 25 -35 -5z"/>
<path d="M4453 5072 c-19 -21 -23 -22 -23 -7 0 15 -6 17 -37 11 -21 -3 -46 -6
-55 -6 -15 0 -18 -9 -18 -49 l0 -50 45 -7 c25 -3 52 -4 60 0 8 3 15 1 15 -4 0
-6 5 -10 11 -10 5 0 8 4 5 9 -7 10 41 5 77 -8 15 -6 27 -7 27 -2 0 5 9 11 20
14 26 7 34 29 26 72 -7 37 -21 45 -82 47 -22 1 -41 4 -44 8 -3 4 -15 -4 -27
-18z"/>
<path d="M2500 5020 l0 -50 150 0 150 0 0 50 0 50 -150 0 -150 0 0 -50z"/>
<path d="M5260 4920 l0 -60 165 0 165 0 0 60 0 60 -165 0 -165 0 0 -60z"/>
<path d="M9098 4920 l-3 -50 123 0 122 0 0 50 0 50 -119 0 -119 0 -4 -50z"/>
<path d="M6977 4883 c-4 -3 -18 -8 -32 -9 -29 -3 -89 -43 -79 -53 4 -3 9 0 11
7 6 15 33 16 33 1 0 -5 -5 -7 -12 -3 -8 5 -9 2 -5 -10 5 -11 3 -15 -5 -10 -8
5 -9 2 -5 -10 4 -11 3 -15 -4 -10 -6 4 -15 0 -20 -7 -4 -7 -11 -10 -15 -6 -4
3 -1 15 7 24 7 10 -1 5 -19 -11 -18 -17 -32 -34 -32 -40 0 -5 3 -6 6 -3 4 3
16 2 28 -4 20 -10 20 -10 2 5 -22 18 -17 30 8 20 18 -7 21 -41 6 -64 -8 -12
-10 -12 -10 5 0 17 -2 17 -10 5 -5 -8 -14 -16 -20 -16 -5 -1 -15 -2 -21 -3 -5
0 -8 -5 -4 -10 3 -5 1 -12 -5 -16 -5 -3 -10 -1 -10 5 0 6 -5 8 -12 4 -8 -5 -4
-13 11 -26 19 -15 41 -18 117 -18 101 0 159 18 170 52 5 15 12 18 42 12 l37
-6 -29 25 -30 24 31 -4 c38 -6 54 14 18 23 -30 7 -31 12 -7 30 16 13 16 13 0
14 -10 0 -18 6 -18 13 0 8 -11 19 -25 25 -15 7 -25 20 -25 32 0 11 -4 20 -10
20 -5 0 -10 -10 -10 -22 l0 -21 -23 21 c-13 12 -27 19 -30 15z"/>
<path d="M7674 4836 c-46 -20 -106 -76 -99 -94 3 -8 0 -22 -7 -31 -11 -14 -11
-14 3 -4 13 11 25 8 70 -17 59 -33 111 -41 89 -15 -7 8 -10 24 -7 35 3 11 0
26 -6 33 -18 18 -18 50 0 43 11 -4 13 -1 8 14 -4 12 -2 20 5 20 6 0 9 4 6 9
-4 5 0 12 6 14 7 3 2 6 -12 6 -14 0 -39 -6 -56 -13z"/>
<path d="M5445 4743 c-29 -7 -68 -51 -59 -66 5 -8 2 -8 -9 2 -9 7 -24 10 -33
7 -14 -5 -15 -16 -10 -69 10 -93 -2 -104 -124 -110 l-94 -5 -55 57 c-95 96
-117 105 -196 75 -22 -9 -66 -23 -98 -31 -53 -14 -58 -18 -55 -42 3 -24 7 -26
50 -26 37 0 50 -5 66 -25 24 -31 28 -48 17 -74 -5 -11 -3 -26 3 -37 28 -44 18
-50 -83 -47 -52 1 -97 0 -100 -3 -3 -3 98 -9 224 -12 249 -7 1038 3 1023 12
-5 3 -7 15 -5 26 2 11 5 48 6 83 l2 62 -75 70 c-79 73 -103 82 -145 54 -18
-12 -31 -13 -59 -5 -20 5 -36 6 -36 3 -1 -4 -10 10 -21 30 -29 55 -83 84 -134
71z m64 -201 c5 -8 12 -13 17 -13 9 1 13 -46 6 -62 -2 -4 -14 -1 -27 7 -22 15
-23 14 -16 -12 4 -15 3 -37 -2 -50 -9 -19 -17 -23 -51 -20 -34 3 -42 7 -50 31
-15 42 3 80 41 88 19 4 36 2 43 -5 8 -8 8 -4 1 17 -14 36 -14 34 9 33 12 0 24
-7 29 -14z"/>
<path d="M3128 4733 l-1268 -3 0 -515 0 -515 1253 0 1253 0 -4 -217 c-2 -120
-6 -220 -9 -223 -3 -3 -118 -8 -256 -11 -259 -7 -355 -12 -419 -23 -26 -5 -41
-2 -52 10 -15 14 -16 10 -16 -51 0 -37 4 -64 9 -61 5 3 7 15 4 25 -3 13 1 21
14 24 17 5 17 5 0 6 -10 0 -17 7 -14 14 4 13 42 15 127 4 40 -5 51 -4 40 4
-12 8 -10 9 10 5 14 -3 56 -6 93 -6 38 0 66 -4 63 -9 -3 -5 3 -19 13 -32 l19
-24 12 26 c21 46 112 66 206 44 69 -16 97 -33 117 -70 9 -18 8 -18 -5 -7 -12
9 -18 10 -23 2 -4 -6 -14 -9 -24 -5 -13 5 -14 4 -3 -6 18 -19 15 -29 -8 -29
-27 0 -25 -18 3 -22 12 -2 21 -9 19 -16 -1 -6 5 -12 13 -12 8 0 15 -5 15 -10
0 -6 10 -15 23 -20 18 -7 15 -9 -21 -9 -51 -1 -115 -32 -138 -66 l-16 -24 -24
29 c-38 44 -100 64 -179 55 -66 -7 -74 -12 -53 -33 6 -6 9 -15 5 -18 -3 -4
-13 1 -22 10 -9 9 -21 14 -25 11 -5 -3 -18 0 -28 6 -22 14 -57 5 -47 -11 4 -6
1 -17 -5 -25 -7 -9 -10 -28 -6 -45 5 -26 2 -32 -19 -42 -43 -19 -30 -35 45
-55 65 -18 90 -16 90 5 0 14 2 15 10 2 16 -25 -17 -34 -87 -22 -36 6 -73 18
-83 27 -18 16 -74 14 -110 -5 -22 -12 -22 -411 0 -409 8 1 173 1 366 0 l352
-1 4 -40 c2 -23 1 -44 -2 -48 -3 -4 -27 -7 -55 -7 -58 1 -75 -3 -75 -17 0 -6
19 -8 45 -6 25 2 45 0 45 -4 0 -3 11 -5 25 -3 20 2 23 0 14 -11 -6 -8 -8 -14
-4 -14 4 0 2 -7 -5 -15 -11 -13 -10 -14 6 -9 10 4 16 4 12 -1 -4 -4 -34 -8
-65 -8 -54 0 -78 -10 -67 -29 3 -4 31 -8 62 -8 l57 0 -1 -57 c-1 -32 -6 -58
-10 -60 -5 -1 -27 -4 -48 -5 -22 -2 -41 -9 -44 -16 -2 -7 4 -11 15 -10 10 0
36 0 58 -1 37 -2 39 -3 21 -16 -11 -8 -28 -15 -38 -15 -10 0 -18 -7 -18 -15 0
-10 10 -15 30 -15 19 0 29 -5 28 -12 -5 -21 -17 -25 -70 -22 -43 2 -48 1 -37
-12 7 -8 24 -14 38 -13 46 4 86 -1 76 -9 -6 -4 -10 -17 -9 -30 2 -34 -22 -52
-69 -53 -34 -2 -37 -3 -12 -6 48 -7 52 -16 43 -85 -22 -176 -25 -253 -12 -264
14 -11 -68 -22 -190 -25 -41 -1 -45 -3 -21 -8 31 -6 36 -16 22 -38 -6 -9 -2
-13 10 -13 14 0 15 -2 4 -9 -7 -5 -15 -19 -16 -32 -1 -13 -3 -27 -4 -31 0 -5
-469 -8 -1041 -8 -595 0 -1040 -4 -1040 -9 0 -5 10 -11 23 -15 12 -3 542 -6
1177 -6 635 0 1172 -4 1193 -9 l37 -9 0 1749 c0 1660 -1 1749 -17 1747 -10 -2
-588 -4 -1285 -5z m-30 -625 l2 -178 -180 0 -180 0 0 180 0 180 178 -2 177 -3
3 -177z m430 0 l2 -178 -180 0 -180 0 0 180 0 180 178 -2 177 -3 3 -177z m430
0 l2 -178 -180 0 -180 0 0 173 c0 96 3 177 7 181 4 3 84 5 177 4 l171 -3 3
-177z m267 172 c66 -2 109 -5 95 -7 -14 -2 -32 -14 -39 -26 -13 -20 -13 -21 2
-8 15 11 17 11 17 -1 0 -8 -6 -20 -12 -27 -10 -11 -10 -14 0 -18 6 -3 12 -12
12 -20 0 -9 -6 -13 -15 -9 -13 5 -14 2 -4 -16 10 -18 9 -20 -4 -15 -11 4 -14
2 -11 -7 3 -8 -4 -20 -15 -28 -12 -8 -18 -18 -14 -21 3 -4 12 2 20 13 15 21
39 29 27 8 -5 -8 -2 -9 9 -5 9 3 19 2 22 -3 3 -4 -6 -7 -20 -5 -24 2 -35 -9
-16 -17 18 -7 22 -46 6 -62 -9 -9 -13 -16 -9 -16 3 0 1 -7 -6 -15 -10 -12 -6
-16 22 -23 33 -9 32 -9 -22 -16 -30 -4 -95 -6 -145 -4 l-90 3 -3 165 c-1 90 0
170 2 176 3 7 19 11 38 9 18 -2 87 -4 153 -5z"/>
<path d="M6400 3641 c0 -6 -3 -10 -7 -10 -23 4 -33 -3 -30 -22 2 -22 -6 -25
-66 -31 -12 -2 -17 -8 -14 -20 3 -9 2 -17 -2 -16 -30 3 -38 -4 -33 -29 2 -16
9 -34 15 -41 7 -9 7 -16 -1 -24 -20 -20 -13 -30 15 -23 23 5 25 4 14 -9 -10
-12 -8 -15 8 -21 11 -3 20 -9 19 -13 -1 -4 3 -16 7 -27 15 -34 64 -63 51 -30
-8 21 -1 19 29 -11 32 -32 55 -28 72 14 8 19 9 31 3 27 -5 -3 -10 -1 -10 4 0
6 6 11 13 11 6 0 13 12 14 26 1 32 -31 72 -42 54 -4 -7 -1 -16 6 -21 12 -8 12
-11 -1 -19 -45 -29 -62 11 -20 48 16 15 30 32 30 39 0 16 -5 16 -30 1 -15 -10
-22 -10 -31 -1 -9 9 -5 19 15 43 14 17 26 40 26 50 0 10 3 26 6 35 5 12 2 16
-12 14 -10 -2 -25 0 -31 4 -8 5 -13 4 -13 -2z"/>
<path d="M7320 3533 c-19 -20 -34 -40 -32 -45 1 -4 -3 -8 -9 -8 -5 0 -7 -4 -4
-10 9 -15 25 -12 25 5 0 8 5 15 10 15 6 0 10 -4 10 -10 0 -5 3 -9 8 -7 4 1 8
-2 10 -8 2 -5 -5 -12 -15 -14 -10 -2 -21 -8 -24 -13 -4 -5 -13 -2 -23 7 -15
15 -16 15 -16 -2 0 -24 42 -95 59 -101 9 -3 11 0 6 9 -5 8 1 6 13 -5 12 -10
19 -22 17 -27 -7 -10 60 -29 103 -29 17 0 32 5 32 10 0 6 14 10 31 10 26 0 31
3 26 20 -6 22 0 25 22 11 7 -5 10 -14 6 -21 -6 -9 -3 -9 14 -1 16 9 19 16 12
29 -5 9 -12 26 -16 37 -6 19 -7 19 -19 3 -7 -10 -16 -15 -19 -11 -7 6 -11 -19
-8 -44 1 -7 -7 -13 -19 -13 -18 0 -19 3 -10 21 7 11 8 24 4 27 -4 4 -9 1 -11
-5 -3 -7 -13 -13 -24 -13 -10 0 -19 -4 -19 -10 0 -5 7 -7 15 -4 8 4 15 1 15
-5 0 -6 -5 -11 -11 -11 -5 0 -7 -6 -4 -12 4 -7 -2 -2 -13 11 l-20 24 -6 -21
c-10 -30 -21 -28 -23 5 0 15 2 21 6 14 10 -16 26 3 35 42 3 15 13 27 21 27 8
0 15 5 15 10 0 12 -13 13 -24 3 -4 -5 -13 -8 -19 -8 -6 0 -14 -11 -17 -24 -3
-14 -12 -27 -19 -29 -9 -3 -12 0 -8 11 4 10 0 13 -13 10 -15 -4 -17 0 -12 24
7 41 30 64 58 57 19 -5 24 -2 24 14 0 12 -5 24 -11 28 -6 3 -9 15 -6 25 3 11
1 17 -4 13 -5 -3 -9 -18 -9 -34 0 -22 -4 -28 -15 -24 -9 4 -15 0 -15 -7 -1 -8
-9 -4 -22 11 -14 16 -19 19 -15 8 4 -10 2 -18 -3 -18 -17 0 -22 21 -8 37 9 12
9 15 1 9 -7 -4 -13 -3 -13 3 0 5 5 11 12 13 6 2 9 10 7 16 -3 8 -18 -2 -39
-25z"/>
<path d="M2700 2926 c-5 -5 -10 -17 -10 -25 0 -14 -1 -14 -10 -1 -13 21 -25 5
-42 -54 -12 -42 -13 -54 -1 -76 24 -49 48 -63 105 -62 44 1 57 6 76 28 18 21
22 35 18 58 -3 17 -9 48 -12 69 -4 21 -11 40 -16 43 -4 3 -8 2 -6 -3 3 -13
-24 -93 -32 -93 -13 0 -37 35 -45 65 -7 27 -8 28 -15 10 -5 -11 -9 -40 -9 -65
-1 -33 -4 -41 -11 -30 -5 8 -10 29 -10 47 0 17 -3 33 -7 36 -5 2 -2 2 5 0 8
-2 16 6 19 17 3 11 11 20 18 20 7 0 15 6 18 13 6 16 -18 18 -33 3z"/>
<path d="M6232 2478 l3 -63 165 0 165 0 3 63 3 62 -171 0 -171 0 3 -62z"/>
<path d="M3447 1694 c-4 -4 -7 -29 -7 -56 l0 -48 126 0 125 0 -3 53 -3 52
-116 3 c-63 1 -118 -1 -122 -4z"/>
<path d="M5571 1141 l-23 -20 29 -15 c36 -18 57 -42 45 -50 -5 -3 -31 1 -58 9
-60 18 -81 9 -57 -24 15 -22 20 -23 87 -17 39 4 93 9 121 12 27 2 65 9 85 16
l35 12 -40 8 c-21 5 -43 14 -48 21 -7 9 -10 9 -14 0 -8 -20 -23 -15 -23 8 0
13 4 18 13 13 9 -5 9 -4 0 6 -9 9 -19 10 -46 1 -40 -14 -89 2 -80 25 7 19 0
18 -26 -5z"/>
<path d="M4870 950 c0 -6 -50 -10 -129 -10 -99 0 -131 -3 -140 -14 -10 -12 -8
-17 9 -26 17 -9 461 -11 1769 -11 961 1 1759 5 1774 9 30 8 36 20 15 33 -7 5
-731 10 -1608 11 -877 1 -1554 5 -1505 8 87 6 86 6 -47 8 -87 1 -138 -2 -138
-8z"/>
</g>
</svg>
